<?xml version="1.0"?>
<!-- Generated by SVGo -->
<svg width="1200" height="400"
     xmlns="http://www.w3.org/2000/svg"
     xmlns:xlink="http://www.w3.org/1999/xlink">
    <rect x="10" y="10" width="1100" height="100" style="fill:#eeeeee;stroke:none"/>
    <text x="20" y="30" style="text-anchor:start;font-size:12px;fill:#333333">Process 1 Timeline</text>
    <rect x="10" y="130" width="1100" height="100" style="fill:#eeeeee;stroke:none"/>
    <text x="20" y="150" style="text-anchor:start;font-size:12px;fill:#333333">Process 2 Timeline</text>
    <text x="0" y="380" style="text-anchor:middle;font-size:10px;fill:#000000">0</text>
    <rect x="0" y="0" width="1" height="400" style="fill:#dddddd"/>
    <rect x="0" y="0" width="1" height="400" style="fill:#cccccc"/>
    <circle cx="4" cy="377" r="1" style="fill:#cccccc;stroke:none"/>
    <circle cx="8" cy="377" r="1" style="fill:#cccccc;stroke:none"/>
    <rect x="10" y="0" width="1" height="400" style="fill:#dddddd"/>
    <circle cx="12" cy="377" r="1" style="fill:#cccccc;stroke:none"/>
    <circle cx="16" cy="377" r="1" style="fill:#cccccc;stroke:none"/>
    <circle cx="20" cy="377" r="1" style="fill:#cccccc;stroke:none"/>
    <rect x="20" y="0" width="1" height="400" style="fill:#dddddd"/>
    <circle cx="24" cy="377" r="1" style="fill:#cccccc;stroke:none"/>
    <circle cx="28" cy="377" r="1" style="fill:#cccccc;stroke:none"/>
    <rect x="30" y="0" width="1" height="400" style="fill:#dddddd"/>
    <circle cx="32" cy="377" r="1" style="fill:#cccccc;stroke:none"/>
    <circle cx="36" cy="377" r="1" style="fill:#cccccc;stroke:none"/>
    <circle cx="40" cy="377" r="1" style="fill:#cccccc;stroke:none"/>
    <rect x="40" y="0" width="1" height="400" style="fill:#dddddd"/>
    <circle cx="44" cy="377" r="1" style="fill:#cccccc;stroke:none"/>
    <circle cx="48" cy="377" r="1" style="fill:#cccccc;stroke:none"/>
    <rect x="50" y="0" width="1" height="400" style="fill:#dddddd"/>
    <rect x="50" y="0" width="1" height="400" style="fill:#cccccc"/>
    <circle cx="52" cy="377" r="1" style="fill:#cccccc;stroke:none"/>
    <circle cx="56" cy="377" r="1" style="fill:#cccccc;stroke:none"/>
    <circle cx="60" cy="377" r="1" style="fill:#cccccc;stroke:none"/>
    <rect x="60" y="0" width="1" height="400" style="fill:#dddddd"/>
    <circle cx="64" cy="377" r="1" style="fill:#cccccc;stroke:none"/>
    <circle cx="68" cy="377" r="1" style="fill:#cccccc;stroke:none"/>
    <rect x="70" y="0" width="1" height="400" style="fill:#dddddd"/>
    <circle cx="72" cy="377" r="1" style="fill:#cccccc;stroke:none"/>
    <circle cx="76" cy="377" r="1" style="fill:#cccccc;stroke:none"/>
    <circle cx="80" cy="377" r="1" style="fill:#cccccc;stroke:none"/>
    <rect x="80" y="0" width="1" height="400" style="fill:#dddddd"/>
    <circle cx="84" cy="377" r="1" style="fill:#cccccc;stroke:none"/>
    <circle cx="88" cy="377" r="1" style="fill:#cccccc;stroke:none"/>
    <rect x="90" y="0" width="1" height="400" style="fill:#dddddd"/>
    <circle cx="92" cy="377" r="1" style="fill:#cccccc;stroke:none"/>
    <circle cx="96" cy="377" r="1" style="fill:#cccccc;stroke:none"/>
    <text x="100" y="380" style="text-anchor:middle;font-size:10px;fill:#000000">100</text>
    <rect x="100" y="0" width="1" height="400" style="fill:#dddddd"/>
    <rect x="100" y="0" width="1" height="400" style="fill:#cccccc"/>
    <circle cx="104" cy="377" r="1" style="fill:#cccccc;stroke:none"/>
    <circle cx="108" cy="377" r="1" style="fill:#cccccc;stroke:none"/>
    <rect x="110" y="0" width="1" height="400" style="fill:#dddddd"/>
    <circle cx="112" cy="377" r="1" style="fill:#cccccc;stroke:none"/>
    <circle cx="116" cy="377" r="1" style="fill:#cccccc;stroke:none"/>
    <circle cx="120" cy="377" r="1" style="fill:#cccccc;stroke:none"/>
    <rect x="120" y="0" width="1" height="400" style="fill:#dddddd"/>
    <circle cx="124" cy="377" r="1" style="fill:#cccccc;stroke:none"/>
    <circle cx="128" cy="377" r="1" style="fill:#cccccc;stroke:none"/>
    <rect x="130" y="0" width="1" height="400" style="fill:#dddddd"/>
    <circle cx="132" cy="377" r="1" style="fill:#cccccc;stroke:none"/>
    <circle cx="136" cy="377" r="1" style="fill:#cccccc;stroke:none"/>
    <circle cx="140" cy="377" r="1" style="fill:#cccccc;stroke:none"/>
    <rect x="140" y="0" width="1" height="400" style="fill:#dddddd"/>
    <circle cx="144" cy="377" r="1" style="fill:#cccccc;stroke:none"/>
    <circle cx="148" cy="377" r="1" style="fill:#cccccc;stroke:none"/>
    <rect x="150" y="0" width="1" height="400" style="fill:#dddddd"/>
    <rect x="150" y="0" width="1" height="400" style="fill:#cccccc"/>
    <circle cx="152" cy="377" r="1" style="fill:#cccccc;stroke:none"/>
    <circle cx="156" cy="377" r="1" style="fill:#cccccc;stroke:none"/>
    <circle cx="160" cy="377" r="1" style="fill:#cccccc;stroke:none"/>
    <rect x="160" y="0" width="1" height="400" style="fill:#dddddd"/>
    <circle cx="164" cy="377" r="1" style="fill:#cccccc;stroke:none"/>
    <circle cx="168" cy="377" r="1" style="fill:#cccccc;stroke:none"/>
    <rect x="170" y="0" width="1" height="400" style="fill:#dddddd"/>
    <circle cx="172" cy="377" r="1" style="fill:#cccccc;stroke:none"/>
    <circle cx="176" cy="377" r="1" style="fill:#cccccc;stroke:none"/>
    <circle cx="180" cy="377" r="1" style="fill:#cccccc;stroke:none"/>
    <rect x="180" y="0" width="1" height="400" style="fill:#dddddd"/>
    <circle cx="184" cy="377" r="1" style="fill:#cccccc;stroke:none"/>
    <circle cx="188" cy="377" r="1" style="fill:#cccccc;stroke:none"/>
    <rect x="190" y="0" width="1" height="400" style="fill:#dddddd"/>
    <circle cx="192" cy="377" r="1" style="fill:#cccccc;stroke:none"/>
    <circle cx="196" cy="377" r="1" style="fill:#cccccc;stroke:none"/>
    <text x="200" y="380" style="text-anchor:middle;font-size:10px;fill:#000000">200</text>
    <rect x="200" y="0" width="1" height="400" style="fill:#dddddd"/>
    <rect x="200" y="0" width="1" height="400" style="fill:#cccccc"/>
    <circle cx="204" cy="377" r="1" style="fill:#cccccc;stroke:none"/>
    <circle cx="208" cy="377" r="1" style="fill:#cccccc;stroke:none"/>
    <rect x="210" y="0" width="1" height="400" style="fill:#dddddd"/>
    <circle cx="212" cy="377" r="1" style="fill:#cccccc;stroke:none"/>
    <circle cx="216" cy="377" r="1" style="fill:#cccccc;stroke:none"/>
    <circle cx="220" cy="377" r="1" style="fill:#cccccc;stroke:none"/>
    <rect x="220" y="0" width="1" height="400" style="fill:#dddddd"/>
    <circle cx="224" cy="377" r="1" style="fill:#cccccc;stroke:none"/>
    <circle cx="228" cy="377" r="1" style="fill:#cccccc;stroke:none"/>
    <rect x="230" y="0" width="1" height="400" style="fill:#dddddd"/>
    <circle cx="232" cy="377" r="1" style="fill:#cccccc;stroke:none"/>
    <circle cx="236" cy="377" r="1" style="fill:#cccccc;stroke:none"/>
    <circle cx="240" cy="377" r="1" style="fill:#cccccc;stroke:none"/>
    <rect x="240" y="0" width="1" height="400" style="fill:#dddddd"/>
    <circle cx="244" cy="377" r="1" style="fill:#cccccc;stroke:none"/>
    <circle cx="248" cy="377" r="1" style="fill:#cccccc;stroke:none"/>
    <rect x="250" y="0" width="1" height="400" style="fill:#dddddd"/>
    <rect x="250" y="0" width="1" height="400" style="fill:#cccccc"/>
    <circle cx="252" cy="377" r="1" style="fill:#cccccc;stroke:none"/>
    <circle cx="256" cy="377" r="1" style="fill:#cccccc;stroke:none"/>
    <circle cx="260" cy="377" r="1" style="fill:#cccccc;stroke:none"/>
    <rect x="260" y="0" width="1" height="400" style="fill:#dddddd"/>
    <circle cx="264" cy="377" r="1" style="fill:#cccccc;stroke:none"/>
    <circle cx="268" cy="377" r="1" style="fill:#cccccc;stroke:none"/>
    <rect x="270" y="0" width="1" height="400" style="fill:#dddddd"/>
    <circle cx="272" cy="377" r="1" style="fill:#cccccc;stroke:none"/>
    <circle cx="276" cy="377" r="1" style="fill:#cccccc;stroke:none"/>
    <circle cx="280" cy="377" r="1" style="fill:#cccccc;stroke:none"/>
    <rect x="280" y="0" width="1" height="400" style="fill:#dddddd"/>
    <circle cx="284" cy="377" r="1" style="fill:#cccccc;stroke:none"/>
    <circle cx="288" cy="377" r="1" style="fill:#cccccc;stroke:none"/>
    <rect x="290" y="0" width="1" height="400" style="fill:#dddddd"/>
    <circle cx="292" cy="377" r="1" style="fill:#cccccc;stroke:none"/>
    <circle cx="296" cy="377" r="1" style="fill:#cccccc;stroke:none"/>
    <text x="300" y="380" style="text-anchor:middle;font-size:10px;fill:#000000">300</text>
    <rect x="300" y="0" width="1" height="400" style="fill:#dddddd"/>
    <rect x="300" y="0" width="1" height="400" style="fill:#cccccc"/>
    <circle cx="304" cy="377" r="1" style="fill:#cccccc;stroke:none"/>
    <circle cx="308" cy="377" r="1" style="fill:#cccccc;stroke:none"/>
    <rect x="310" y="0" width="1" height="400" style="fill:#dddddd"/>
    <circle cx="312" cy="377" r="1" style="fill:#cccccc;stroke:none"/>
    <circle cx="316" cy="377" r="1" style="fill:#cccccc;stroke:none"/>
    <circle cx="320" cy="377" r="1" style="fill:#cccccc;stroke:none"/>
    <rect x="320" y="0" width="1" height="400" style="fill:#dddddd"/>
    <circle cx="324" cy="377" r="1" style="fill:#cccccc;stroke:none"/>
    <circle cx="328" cy="377" r="1" style="fill:#cccccc;stroke:none"/>
    <rect x="330" y="0" width="1" height="400" style="fill:#dddddd"/>
    <circle cx="332" cy="377" r="1" style="fill:#cccccc;stroke:none"/>
    <circle cx="336" cy="377" r="1" style="fill:#cccccc;stroke:none"/>
    <circle cx="340" cy="377" r="1" style="fill:#cccccc;stroke:none"/>
    <rect x="340" y="0" width="1" height="400" style="fill:#dddddd"/>
    <circle cx="344" cy="377" r="1" style="fill:#cccccc;stroke:none"/>
    <circle cx="348" cy="377" r="1" style="fill:#cccccc;stroke:none"/>
    <rect x="350" y="0" width="1" height="400" style="fill:#dddddd"/>
    <rect x="350" y="0" width="1" height="400" style="fill:#cccccc"/>
    <circle cx="352" cy="377" r="1" style="fill:#cccccc;stroke:none"/>
    <circle cx="356" cy="377" r="1" style="fill:#cccccc;stroke:none"/>
    <circle cx="360" cy="377" r="1" style="fill:#cccccc;stroke:none"/>
    <rect x="360" y="0" width="1" height="400" style="fill:#dddddd"/>
    <circle cx="364" cy="377" r="1" style="fill:#cccccc;stroke:none"/>
    <circle cx="368" cy="377" r="1" style="fill:#cccccc;stroke:none"/>
    <rect x="370" y="0" width="1" height="400" style="fill:#dddddd"/>
    <circle cx="372" cy="377" r="1" style="fill:#cccccc;stroke:none"/>
    <circle cx="376" cy="377" r="1" style="fill:#cccccc;stroke:none"/>
    <circle cx="380" cy="377" r="1" style="fill:#cccccc;stroke:none"/>
    <rect x="380" y="0" width="1" height="400" style="fill:#dddddd"/>
    <circle cx="384" cy="377" r="1" style="fill:#cccccc;stroke:none"/>
    <circle cx="388" cy="377" r="1" style="fill:#cccccc;stroke:none"/>
    <rect x="390" y="0" width="1" height="400" style="fill:#dddddd"/>
    <circle cx="392" cy="377" r="1" style="fill:#cccccc;stroke:none"/>
    <circle cx="396" cy="377" r="1" style="fill:#cccccc;stroke:none"/>
    <text x="400" y="380" style="text-anchor:middle;font-size:10px;fill:#000000">400</text>
    <rect x="400" y="0" width="1" height="400" style="fill:#dddddd"/>
    <rect x="400" y="0" width="1" height="400" style="fill:#cccccc"/>
    <circle cx="404" cy="377" r="1" style="fill:#cccccc;stroke:none"/>
    <circle cx="408" cy="377" r="1" style="fill:#cccccc;stroke:none"/>
    <rect x="410" y="0" width="1" height="400" style="fill:#dddddd"/>
    <circle cx="412" cy="377" r="1" style="fill:#cccccc;stroke:none"/>
    <circle cx="416" cy="377" r="1" style="fill:#cccccc;stroke:none"/>
    <circle cx="420" cy="377" r="1" style="fill:#cccccc;stroke:none"/>
    <rect x="420" y="0" width="1" height="400" style="fill:#dddddd"/>
    <circle cx="424" cy="377" r="1" style="fill:#cccccc;stroke:none"/>
    <circle cx="428" cy="377" r="1" style="fill:#cccccc;stroke:none"/>
    <rect x="430" y="0" width="1" height="400" style="fill:#dddddd"/>
    <circle cx="432" cy="377" r="1" style="fill:#cccccc;stroke:none"/>
    <circle cx="436" cy="377" r="1" style="fill:#cccccc;stroke:none"/>
    <circle cx="440" cy="377" r="1" style="fill:#cccccc;stroke:none"/>
    <rect x="440" y="0" width="1" height="400" style="fill:#dddddd"/>
    <circle cx="444" cy="377" r="1" style="fill:#cccccc;stroke:none"/>
    <circle cx="448" cy="377" r="1" style="fill:#cccccc;stroke:none"/>
    <rect x="450" y="0" width="1" height="400" style="fill:#dddddd"/>
    <rect x="450" y="0" width="1" height="400" style="fill:#cccccc"/>
    <circle cx="452" cy="377" r="1" style="fill:#cccccc;stroke:none"/>
    <circle cx="456" cy="377" r="1" style="fill:#cccccc;stroke:none"/>
    <circle cx="460" cy="377" r="1" style="fill:#cccccc;stroke:none"/>
    <rect x="460" y="0" width="1" height="400" style="fill:#dddddd"/>
    <circle cx="464" cy="377" r="1" style="fill:#cccccc;stroke:none"/>
    <circle cx="468" cy="377" r="1" style="fill:#cccccc;stroke:none"/>
    <rect x="470" y="0" width="1" height="400" style="fill:#dddddd"/>
    <circle cx="472" cy="377" r="1" style="fill:#cccccc;stroke:none"/>
    <circle cx="476" cy="377" r="1" style="fill:#cccccc;stroke:none"/>
    <circle cx="480" cy="377" r="1" style="fill:#cccccc;stroke:none"/>
    <rect x="480" y="0" width="1" height="400" style="fill:#dddddd"/>
    <circle cx="484" cy="377" r="1" style="fill:#cccccc;stroke:none"/>
    <circle cx="488" cy="377" r="1" style="fill:#cccccc;stroke:none"/>
    <rect x="490" y="0" width="1" height="400" style="fill:#dddddd"/>
    <circle cx="492" cy="377" r="1" style="fill:#cccccc;stroke:none"/>
    <circle cx="496" cy="377" r="1" style="fill:#cccccc;stroke:none"/>
    <text x="500" y="380" style="text-anchor:middle;font-size:10px;fill:#000000">500</text>
    <rect x="500" y="0" width="1" height="400" style="fill:#dddddd"/>
    <rect x="500" y="0" width="1" height="400" style="fill:#cccccc"/>
    <circle cx="504" cy="377" r="1" style="fill:#cccccc;stroke:none"/>
    <circle cx="508" cy="377" r="1" style="fill:#cccccc;stroke:none"/>
    <rect x="510" y="0" width="1" height="400" style="fill:#dddddd"/>
    <circle cx="512" cy="377" r="1" style="fill:#cccccc;stroke:none"/>
    <circle cx="516" cy="377" r="1" style="fill:#cccccc;stroke:none"/>
    <circle cx="520" cy="377" r="1" style="fill:#cccccc;stroke:none"/>
    <rect x="520" y="0" width="1" height="400" style="fill:#dddddd"/>
    <circle cx="524" cy="377" r="1" style="fill:#cccccc;stroke:none"/>
    <circle cx="528" cy="377" r="1" style="fill:#cccccc;stroke:none"/>
    <rect x="530" y="0" width="1" height="400" style="fill:#dddddd"/>
    <circle cx="532" cy="377" r="1" style="fill:#cccccc;stroke:none"/>
    <circle cx="536" cy="377" r="1" style="fill:#cccccc;stroke:none"/>
    <circle cx="540" cy="377" r="1" style="fill:#cccccc;stroke:none"/>
    <rect x="540" y="0" width="1" height="400" style="fill:#dddddd"/>
    <circle cx="544" cy="377" r="1" style="fill:#cccccc;stroke:none"/>
    <circle cx="548" cy="377" r="1" style="fill:#cccccc;stroke:none"/>
    <rect x="550" y="0" width="1" height="400" style="fill:#dddddd"/>
    <rect x="550" y="0" width="1" height="400" style="fill:#cccccc"/>
    <circle cx="552" cy="377" r="1" style="fill:#cccccc;stroke:none"/>
    <circle cx="556" cy="377" r="1" style="fill:#cccccc;stroke:none"/>
    <circle cx="560" cy="377" r="1" style="fill:#cccccc;stroke:none"/>
    <rect x="560" y="0" width="1" height="400" style="fill:#dddddd"/>
    <circle cx="564" cy="377" r="1" style="fill:#cccccc;stroke:none"/>
    <circle cx="568" cy="377" r="1" style="fill:#cccccc;stroke:none"/>
    <rect x="570" y="0" width="1" height="400" style="fill:#dddddd"/>
    <circle cx="572" cy="377" r="1" style="fill:#cccccc;stroke:none"/>
    <circle cx="576" cy="377" r="1" style="fill:#cccccc;stroke:none"/>
    <circle cx="580" cy="377" r="1" style="fill:#cccccc;stroke:none"/>
    <rect x="580" y="0" width="1" height="400" style="fill:#dddddd"/>
    <circle cx="584" cy="377" r="1" style="fill:#cccccc;stroke:none"/>
    <circle cx="588" cy="377" r="1" style="fill:#cccccc;stroke:none"/>
    <rect x="590" y="0" width="1" height="400" style="fill:#dddddd"/>
    <circle cx="592" cy="377" r="1" style="fill:#cccccc;stroke:none"/>
    <circle cx="596" cy="377" r="1" style="fill:#cccccc;stroke:none"/>
    <text x="600" y="380" style="text-anchor:middle;font-size:10px;fill:#000000">600</text>
    <rect x="600" y="0" width="1" height="400" style="fill:#dddddd"/>
    <rect x="600" y="0" width="1" height="400" style="fill:#cccccc"/>
    <circle cx="604" cy="377" r="1" style="fill:#cccccc;stroke:none"/>
    <circle cx="608" cy="377" r="1" style="fill:#cccccc;stroke:none"/>
    <rect x="610" y="0" width="1" height="400" style="fill:#dddddd"/>
    <circle cx="612" cy="377" r="1" style="fill:#cccccc;stroke:none"/>
    <circle cx="616" cy="377" r="1" style="fill:#cccccc;stroke:none"/>
    <circle cx="620" cy="377" r="1" style="fill:#cccccc;stroke:none"/>
    <rect x="620" y="0" width="1" height="400" style="fill:#dddddd"/>
    <circle cx="624" cy="377" r="1" style="fill:#cccccc;stroke:none"/>
    <circle cx="628" cy="377" r="1" style="fill:#cccccc;stroke:none"/>
    <rect x="630" y="0" width="1" height="400" style="fill:#dddddd"/>
    <circle cx="632" cy="377" r="1" style="fill:#cccccc;stroke:none"/>
    <circle cx="636" cy="377" r="1" style="fill:#cccccc;stroke:none"/>
    <circle cx="640" cy="377" r="1" style="fill:#cccccc;stroke:none"/>
    <rect x="640" y="0" width="1" height="400" style="fill:#dddddd"/>
    <circle cx="644" cy="377" r="1" style="fill:#cccccc;stroke:none"/>
    <circle cx="648" cy="377" r="1" style="fill:#cccccc;stroke:none"/>
    <rect x="650" y="0" width="1" height="400" style="fill:#dddddd"/>
    <rect x="650" y="0" width="1" height="400" style="fill:#cccccc"/>
    <circle cx="652" cy="377" r="1" style="fill:#cccccc;stroke:none"/>
    <circle cx="656" cy="377" r="1" style="fill:#cccccc;stroke:none"/>
    <circle cx="660" cy="377" r="1" style="fill:#cccccc;stroke:none"/>
    <rect x="660" y="0" width="1" height="400" style="fill:#dddddd"/>
    <circle cx="664" cy="377" r="1" style="fill:#cccccc;stroke:none"/>
    <circle cx="668" cy="377" r="1" style="fill:#cccccc;stroke:none"/>
    <rect x="670" y="0" width="1" height="400" style="fill:#dddddd"/>
    <circle cx="672" cy="377" r="1" style="fill:#cccccc;stroke:none"/>
    <circle cx="676" cy="377" r="1" style="fill:#cccccc;stroke:none"/>
    <circle cx="680" cy="377" r="1" style="fill:#cccccc;stroke:none"/>
    <rect x="680" y="0" width="1" height="400" style="fill:#dddddd"/>
    <circle cx="684" cy="377" r="1" style="fill:#cccccc;stroke:none"/>
    <circle cx="688" cy="377" r="1" style="fill:#cccccc;stroke:none"/>
    <rect x="690" y="0" width="1" height="400" style="fill:#dddddd"/>
    <circle cx="692" cy="377" r="1" style="fill:#cccccc;stroke:none"/>
    <circle cx="696" cy="377" r="1" style="fill:#cccccc;stroke:none"/>
    <text x="700" y="380" style="text-anchor:middle;font-size:10px;fill:#000000">700</text>
    <rect x="700" y="0" width="1" height="400" style="fill:#dddddd"/>
    <rect x="700" y="0" width="1" height="400" style="fill:#cccccc"/>
    <circle cx="704" cy="377" r="1" style="fill:#cccccc;stroke:none"/>
    <circle cx="708" cy="377" r="1" style="fill:#cccccc;stroke:none"/>
    <rect x="710" y="0" width="1" height="400" style="fill:#dddddd"/>
    <circle cx="712" cy="377" r="1" style="fill:#cccccc;stroke:none"/>
    <circle cx="716" cy="377" r="1" style="fill:#cccccc;stroke:none"/>
    <circle cx="720" cy="377" r="1" style="fill:#cccccc;stroke:none"/>
    <rect x="720" y="0" width="1" height="400" style="fill:#dddddd"/>
    <circle cx="724" cy="377" r="1" style="fill:#cccccc;stroke:none"/>
    <circle cx="728" cy="377" r="1" style="fill:#cccccc;stroke:none"/>
    <rect x="730" y="0" width="1" height="400" style="fill:#dddddd"/>
    <circle cx="732" cy="377" r="1" style="fill:#cccccc;stroke:none"/>
    <circle cx="736" cy="377" r="1" style="fill:#cccccc;stroke:none"/>
    <circle cx="740" cy="377" r="1" style="fill:#cccccc;stroke:none"/>
    <rect x="740" y="0" width="1" height="400" style="fill:#dddddd"/>
    <circle cx="744" cy="377" r="1" style="fill:#cccccc;stroke:none"/>
    <circle cx="748" cy="377" r="1" style="fill:#cccccc;stroke:none"/>
    <rect x="750" y="0" width="1" height="400" style="fill:#dddddd"/>
    <rect x="750" y="0" width="1" height="400" style="fill:#cccccc"/>
    <circle cx="752" cy="377" r="1" style="fill:#cccccc;stroke:none"/>
    <circle cx="756" cy="377" r="1" style="fill:#cccccc;stroke:none"/>
    <circle cx="760" cy="377" r="1" style="fill:#cccccc;stroke:none"/>
    <rect x="760" y="0" width="1" height="400" style="fill:#dddddd"/>
    <circle cx="764" cy="377" r="1" style="fill:#cccccc;stroke:none"/>
    <circle cx="768" cy="377" r="1" style="fill:#cccccc;stroke:none"/>
    <rect x="770" y="0" width="1" height="400" style="fill:#dddddd"/>
    <circle cx="772" cy="377" r="1" style="fill:#cccccc;stroke:none"/>
    <circle cx="776" cy="377" r="1" style="fill:#cccccc;stroke:none"/>
    <circle cx="780" cy="377" r="1" style="fill:#cccccc;stroke:none"/>
    <rect x="780" y="0" width="1" height="400" style="fill:#dddddd"/>
    <circle cx="784" cy="377" r="1" style="fill:#cccccc;stroke:none"/>
    <circle cx="788" cy="377" r="1" style="fill:#cccccc;stroke:none"/>
    <rect x="790" y="0" width="1" height="400" style="fill:#dddddd"/>
    <circle cx="792" cy="377" r="1" style="fill:#cccccc;stroke:none"/>
    <circle cx="796" cy="377" r="1" style="fill:#cccccc;stroke:none"/>
    <text x="800" y="380" style="text-anchor:middle;font-size:10px;fill:#000000">800</text>
    <rect x="800" y="0" width="1" height="400" style="fill:#dddddd"/>
    <rect x="800" y="0" width="1" height="400" style="fill:#cccccc"/>
    <circle cx="804" cy="377" r="1" style="fill:#cccccc;stroke:none"/>
    <circle cx="808" cy="377" r="1" style="fill:#cccccc;stroke:none"/>
    <rect x="810" y="0" width="1" height="400" style="fill:#dddddd"/>
    <circle cx="812" cy="377" r="1" style="fill:#cccccc;stroke:none"/>
    <circle cx="816" cy="377" r="1" style="fill:#cccccc;stroke:none"/>
    <circle cx="820" cy="377" r="1" style="fill:#cccccc;stroke:none"/>
    <rect x="820" y="0" width="1" height="400" style="fill:#dddddd"/>
    <circle cx="824" cy="377" r="1" style="fill:#cccccc;stroke:none"/>
    <circle cx="828" cy="377" r="1" style="fill:#cccccc;stroke:none"/>
    <rect x="830" y="0" width="1" height="400" style="fill:#dddddd"/>
    <circle cx="832" cy="377" r="1" style="fill:#cccccc;stroke:none"/>
    <circle cx="836" cy="377" r="1" style="fill:#cccccc;stroke:none"/>
    <circle cx="840" cy="377" r="1" style="fill:#cccccc;stroke:none"/>
    <rect x="840" y="0" width="1" height="400" style="fill:#dddddd"/>
    <circle cx="844" cy="377" r="1" style="fill:#cccccc;stroke:none"/>
    <circle cx="848" cy="377" r="1" style="fill:#cccccc;stroke:none"/>
    <rect x="850" y="0" width="1" height="400" style="fill:#dddddd"/>
    <rect x="850" y="0" width="1" height="400" style="fill:#cccccc"/>
    <circle cx="852" cy="377" r="1" style="fill:#cccccc;stroke:none"/>
    <circle cx="856" cy="377" r="1" style="fill:#cccccc;stroke:none"/>
    <circle cx="860" cy="377" r="1" style="fill:#cccccc;stroke:none"/>
    <rect x="860" y="0" width="1" height="400" style="fill:#dddddd"/>
    <circle cx="864" cy="377" r="1" style="fill:#cccccc;stroke:none"/>
    <circle cx="868" cy="377" r="1" style="fill:#cccccc;stroke:none"/>
    <rect x="870" y="0" width="1" height="400" style="fill:#dddddd"/>
    <circle cx="872" cy="377" r="1" style="fill:#cccccc;stroke:none"/>
    <circle cx="876" cy="377" r="1" style="fill:#cccccc;stroke:none"/>
    <circle cx="880" cy="377" r="1" style="fill:#cccccc;stroke:none"/>
    <rect x="880" y="0" width="1" height="400" style="fill:#dddddd"/>
    <circle cx="884" cy="377" r="1" style="fill:#cccccc;stroke:none"/>
    <circle cx="888" cy="377" r="1" style="fill:#cccccc;stroke:none"/>
    <rect x="890" y="0" width="1" height="400" style="fill:#dddddd"/>
    <circle cx="892" cy="377" r="1" style="fill:#cccccc;stroke:none"/>
    <circle cx="896" cy="377" r="1" style="fill:#cccccc;stroke:none"/>
    <text x="900" y="380" style="text-anchor:middle;font-size:10px;fill:#000000">900</text>
    <rect x="900" y="0" width="1" height="400" style="fill:#dddddd"/>
    <rect x="900" y="0" width="1" height="400" style="fill:#cccccc"/>
    <circle cx="904" cy="377" r="1" style="fill:#cccccc;stroke:none"/>
    <circle cx="908" cy="377" r="1" style="fill:#cccccc;stroke:none"/>
    <rect x="910" y="0" width="1" height="400" style="fill:#dddddd"/>
    <circle cx="912" cy="377" r="1" style="fill:#cccccc;stroke:none"/>
    <circle cx="916" cy="377" r="1" style="fill:#cccccc;stroke:none"/>
    <circle cx="920" cy="377" r="1" style="fill:#cccccc;stroke:none"/>
    <rect x="920" y="0" width="1" height="400" style="fill:#dddddd"/>
    <circle cx="924" cy="377" r="1" style="fill:#cccccc;stroke:none"/>
    <circle cx="928" cy="377" r="1" style="fill:#cccccc;stroke:none"/>
    <rect x="930" y="0" width="1" height="400" style="fill:#dddddd"/>
    <circle cx="932" cy="377" r="1" style="fill:#cccccc;stroke:none"/>
    <circle cx="936" cy="377" r="1" style="fill:#cccccc;stroke:none"/>
    <circle cx="940" cy="377" r="1" style="fill:#cccccc;stroke:none"/>
    <rect x="940" y="0" width="1" height="400" style="fill:#dddddd"/>
    <circle cx="944" cy="377" r="1" style="fill:#cccccc;stroke:none"/>
    <circle cx="948" cy="377" r="1" style="fill:#cccccc;stroke:none"/>
    <rect x="950" y="0" width="1" height="400" style="fill:#dddddd"/>
    <rect x="950" y="0" width="1" height="400" style="fill:#cccccc"/>
    <circle cx="952" cy="377" r="1" style="fill:#cccccc;stroke:none"/>
    <circle cx="956" cy="377" r="1" style="fill:#cccccc;stroke:none"/>
    <circle cx="960" cy="377" r="1" style="fill:#cccccc;stroke:none"/>
    <rect x="960" y="0" width="1" height="400" style="fill:#dddddd"/>
    <circle cx="964" cy="377" r="1" style="fill:#cccccc;stroke:none"/>
    <circle cx="968" cy="377" r="1" style="fill:#cccccc;stroke:none"/>
    <rect x="970" y="0" width="1" height="400" style="fill:#dddddd"/>
    <circle cx="972" cy="377" r="1" style="fill:#cccccc;stroke:none"/>
    <circle cx="976" cy="377" r="1" style="fill:#cccccc;stroke:none"/>
    <circle cx="980" cy="377" r="1" style="fill:#cccccc;stroke:none"/>
    <rect x="980" y="0" width="1" height="400" style="fill:#dddddd"/>
    <circle cx="984" cy="377" r="1" style="fill:#cccccc;stroke:none"/>
    <circle cx="988" cy="377" r="1" style="fill:#cccccc;stroke:none"/>
    <rect x="990" y="0" width="1" height="400" style="fill:#dddddd"/>
    <circle cx="992" cy="377" r="1" style="fill:#cccccc;stroke:none"/>
    <circle cx="996" cy="377" r="1" style="fill:#cccccc;stroke:none"/>
    <text x="1000" y="380" style="text-anchor:middle;font-size:10px;fill:#000000">1000</text>
    <rect x="1000" y="0" width="1" height="400" style="fill:#dddddd"/>
    <rect x="1000" y="0" width="1" height="400" style="fill:#cccccc"/>
    <circle cx="1004" cy="377" r="1" style="fill:#cccccc;stroke:none"/>
    <circle cx="1008" cy="377" r="1" style="fill:#cccccc;stroke:none"/>
    <rect x="1010" y="0" width="1" height="400" style="fill:#dddddd"/>
    <circle cx="1012" cy="377" r="1" style="fill:#cccccc;stroke:none"/>
    <circle cx="1016" cy="377" r="1" style="fill:#cccccc;stroke:none"/>
    <circle cx="1020" cy="377" r="1" style="fill:#cccccc;stroke:none"/>
    <rect x="1020" y="0" width="1" height="400" style="fill:#dddddd"/>
    <circle cx="1024" cy="377" r="1" style="fill:#cccccc;stroke:none"/>
    <circle cx="1028" cy="377" r="1" style="fill:#cccccc;stroke:none"/>
    <rect x="1030" y="0" width="1" height="400" style="fill:#dddddd"/>
    <circle cx="1032" cy="377" r="1" style="fill:#cccccc;stroke:none"/>
    <circle cx="1036" cy="377" r="1" style="fill:#cccccc;stroke:none"/>
    <circle cx="1040" cy="377" r="1" style="fill:#cccccc;stroke:none"/>
    <rect x="1040" y="0" width="1" height="400" style="fill:#dddddd"/>
    <circle cx="1044" cy="377" r="1" style="fill:#cccccc;stroke:none"/>
    <circle cx="1048" cy="377" r="1" style="fill:#cccccc;stroke:none"/>
    <rect x="1050" y="0" width="1" height="400" style="fill:#dddddd"/>
    <rect x="1050" y="0" width="1" height="400" style="fill:#cccccc"/>
    <circle cx="1052" cy="377" r="1" style="fill:#cccccc;stroke:none"/>
    <circle cx="1056" cy="377" r="1" style="fill:#cccccc;stroke:none"/>
    <circle cx="1060" cy="377" r="1" style="fill:#cccccc;stroke:none"/>
    <rect x="1060" y="0" width="1" height="400" style="fill:#dddddd"/>
    <circle cx="1064" cy="377" r="1" style="fill:#cccccc;stroke:none"/>
    <circle cx="1068" cy="377" r="1" style="fill:#cccccc;stroke:none"/>
    <rect x="1070" y="0" width="1" height="400" style="fill:#dddddd"/>
    <circle cx="1072" cy="377" r="1" style="fill:#cccccc;stroke:none"/>
    <circle cx="1076" cy="377" r="1" style="fill:#cccccc;stroke:none"/>
    <circle cx="1080" cy="377" r="1" style="fill:#cccccc;stroke:none"/>
    <rect x="1080" y="0" width="1" height="400" style="fill:#dddddd"/>
    <circle cx="1084" cy="377" r="1" style="fill:#cccccc;stroke:none"/>
    <circle cx="1088" cy="377" r="1" style="fill:#cccccc;stroke:none"/>
    <rect x="1090" y="0" width="1" height="400" style="fill:#dddddd"/>
    <circle cx="1092" cy="377" r="1" style="fill:#cccccc;stroke:none"/>
    <circle cx="1096" cy="377" r="1" style="fill:#cccccc;stroke:none"/>
    <text x="1100" y="380" style="text-anchor:middle;font-size:10px;fill:#000000">1100</text>
    <rect x="1100" y="0" width="1" height="400" style="fill:#dddddd"/>
    <rect x="1100" y="0" width="1" height="400" style="fill:#cccccc"/>
    <circle cx="1104" cy="377" r="1" style="fill:#cccccc;stroke:none"/>
    <circle cx="1108" cy="377" r="1" style="fill:#cccccc;stroke:none"/>
    <rect x="1110" y="0" width="1" height="400" style="fill:#dddddd"/>
    <circle cx="1112" cy="377" r="1" style="fill:#cccccc;stroke:none"/>
    <circle cx="1116" cy="377" r="1" style="fill:#cccccc;stroke:none"/>
    <circle cx="1120" cy="377" r="1" style="fill:#cccccc;stroke:none"/>
    <rect x="1120" y="0" width="1" height="400" style="fill:#dddddd"/>
    <circle cx="1124" cy="377" r="1" style="fill:#cccccc;stroke:none"/>
    <circle cx="1128" cy="377" r="1" style="fill:#cccccc;stroke:none"/>
    <rect x="1130" y="0" width="1" height="400" style="fill:#dddddd"/>
    <circle cx="1132" cy="377" r="1" style="fill:#cccccc;stroke:none"/>
    <circle cx="1136" cy="377" r="1" style="fill:#cccccc;stroke:none"/>
    <circle cx="1140" cy="377" r="1" style="fill:#cccccc;stroke:none"/>
    <rect x="1140" y="0" width="1" height="400" style="fill:#dddddd"/>
    <circle cx="1144" cy="377" r="1" style="fill:#cccccc;stroke:none"/>
    <circle cx="1148" cy="377" r="1" style="fill:#cccccc;stroke:none"/>
    <rect x="1150" y="0" width="1" height="400" style="fill:#dddddd"/>
    <rect x="1150" y="0" width="1" height="400" style="fill:#cccccc"/>
    <circle cx="1152" cy="377" r="1" style="fill:#cccccc;stroke:none"/>
    <circle cx="1156" cy="377" r="1" style="fill:#cccccc;stroke:none"/>
    <circle cx="1160" cy="377" r="1" style="fill:#cccccc;stroke:none"/>
    <rect x="1160" y="0" width="1" height="400" style="fill:#dddddd"/>
    <circle cx="1164" cy="377" r="1" style="fill:#cccccc;stroke:none"/>
    <circle cx="1168" cy="377" r="1" style="fill:#cccccc;stroke:none"/>
    <rect x="1170" y="0" width="1" height="400" style="fill:#dddddd"/>
    <circle cx="1172" cy="377" r="1" style="fill:#cccccc;stroke:none"/>
    <circle cx="1176" cy="377" r="1" style="fill:#cccccc;stroke:none"/>
    <circle cx="1180" cy="377" r="1" style="fill:#cccccc;stroke:none"/>
    <rect x="1180" y="0" width="1" height="400" style="fill:#dddddd"/>
    <circle cx="1184" cy="377" r="1" style="fill:#cccccc;stroke:none"/>
    <circle cx="1188" cy="377" r="1" style="fill:#cccccc;stroke:none"/>
    <rect x="1190" y="0" width="1" height="400" style="fill:#dddddd"/>
    <circle cx="1192" cy="377" r="1" style="fill:#cccccc;stroke:none"/>
    <circle cx="1196" cy="377" r="1" style="fill:#cccccc;stroke:none"/>
    <text x="1200" y="380" style="text-anchor:middle;font-size:10px;fill:#000000">1200</text>
    <rect x="1200" y="0" width="1" height="400" style="fill:#dddddd"/>
    <rect x="1200" y="0" width="1" height="400" style="fill:#cccccc"/>
    <text x="650" y="360" style="text-anchor:start;font-size:12px;fill:#333333">Run with goroutines</text>
    <text x="2" y="170" style="text-anchor:start;font-size:10px;fill:#333333">2</text>
    <text x="2" y="160" style="text-anchor:start;font-size:10px;fill:#333333">Ws</text>
    <rect x="2" y="180" width="3" height="5" style="fill:#66cc66;stroke:none;"/>
    <text x="2" y="50" style="text-anchor:start;font-size:10px;fill:#333333">2</text>
    <text x="2" y="40" style="text-anchor:start;font-size:10px;fill:#333333">Rs</text>
    <rect x="2" y="60" width="3" height="5" style="fill:#cc6666;stroke:none;"/>
    <text x="21" y="170" style="text-anchor:start;font-size:10px;fill:#333333">21</text>
    <text x="21" y="160" style="text-anchor:start;font-size:10px;fill:#333333">We</text>
    <rect x="21" y="180" width="3" height="5" style="fill:#66cc66;stroke:none;"/>
    <text x="21" y="50" style="text-anchor:start;font-size:10px;fill:#333333">21</text>
    <text x="21" y="40" style="text-anchor:start;font-size:10px;fill:#333333">Re</text>
    <rect x="21" y="60" width="3" height="5" style="fill:#cc6666;stroke:none;"/>
    <text x="91" y="170" style="text-anchor:start;font-size:10px;fill:#333333">91</text>
    <text x="91" y="160" style="text-anchor:start;font-size:10px;fill:#333333">Rs</text>
    <rect x="91" y="180" width="3" height="5" style="fill:#66cc66;stroke:none;"/>
    <text x="91" y="50" style="text-anchor:start;font-size:10px;fill:#333333">91</text>
    <text x="91" y="40" style="text-anchor:start;font-size:10px;fill:#333333">Rs</text>
    <rect x="91" y="60" width="3" height="5" style="fill:#cc6666;stroke:none;"/>
    <text x="112" y="170" style="text-anchor:start;font-size:10px;fill:#333333">112</text>
    <text x="112" y="160" style="text-anchor:start;font-size:10px;fill:#333333">Re</text>
    <rect x="112" y="180" width="3" height="5" style="fill:#66cc66;stroke:none;"/>
    <text x="112" y="50" style="text-anchor:start;font-size:10px;fill:#333333">112</text>
    <text x="112" y="40" style="text-anchor:start;font-size:10px;fill:#333333">Re</text>
    <rect x="112" y="60" width="3" height="5" style="fill:#cc6666;stroke:none;"/>
    <text x="183" y="170" style="text-anchor:start;font-size:10px;fill:#333333">183</text>
    <text x="183" y="160" style="text-anchor:start;font-size:10px;fill:#333333">Ws</text>
    <rect x="183" y="180" width="3" height="5" style="fill:#66cc66;stroke:none;"/>
    <text x="183" y="50" style="text-anchor:start;font-size:10px;fill:#333333">183</text>
    <text x="183" y="40" style="text-anchor:start;font-size:10px;fill:#333333">Rs</text>
    <rect x="183" y="60" width="3" height="5" style="fill:#cc6666;stroke:none;"/>
    <text x="203" y="170" style="text-anchor:start;font-size:10px;fill:#333333">203</text>
    <text x="203" y="160" style="text-anchor:start;font-size:10px;fill:#333333">We</text>
    <rect x="203" y="180" width="3" height="5" style="fill:#66cc66;stroke:none;"/>
    <text x="203" y="50" style="text-anchor:start;font-size:10px;fill:#333333">203</text>
    <text x="203" y="40" style="text-anchor:start;font-size:10px;fill:#333333">Re</text>
    <rect x="203" y="60" width="3" height="5" style="fill:#cc6666;stroke:none;"/>
    <text x="274" y="170" style="text-anchor:start;font-size:10px;fill:#333333">274</text>
    <text x="274" y="160" style="text-anchor:start;font-size:10px;fill:#333333">Rs</text>
    <rect x="274" y="180" width="3" height="5" style="fill:#66cc66;stroke:none;"/>
    <text x="274" y="50" style="text-anchor:start;font-size:10px;fill:#333333">274</text>
    <text x="274" y="40" style="text-anchor:start;font-size:10px;fill:#333333">Rs</text>
    <rect x="274" y="60" width="3" height="5" style="fill:#cc6666;stroke:none;"/>
    <text x="294" y="170" style="text-anchor:start;font-size:10px;fill:#333333">294</text>
    <text x="294" y="160" style="text-anchor:start;font-size:10px;fill:#333333">Re</text>
    <rect x="294" y="180" width="3" height="5" style="fill:#66cc66;stroke:none;"/>
    <text x="294" y="50" style="text-anchor:start;font-size:10px;fill:#333333">294</text>
    <text x="294" y="40" style="text-anchor:start;font-size:10px;fill:#333333">Re</text>
    <rect x="294" y="60" width="3" height="5" style="fill:#cc6666;stroke:none;"/>
    <text x="364" y="170" style="text-anchor:start;font-size:10px;fill:#333333">364</text>
    <text x="364" y="160" style="text-anchor:start;font-size:10px;fill:#333333">
        <text x="364" y="50" style="text-anchor:start;font-size:10px;fill:#333333">364</text>
        Ws</text>
    <text x="364" y="40" style="text-anchor:start;font-size:10px;fill:#333333">Rs</text>
    <rect x="364" y="180" width="3" height="5" style="fill:#66cc66;stroke:none;"/>
    <rect x="364" y="60" width="3" height="5" style="fill:#cc6666;stroke:none;"/>
    <text x="384" y="170" style="text-anchor:start;font-size:10px;fill:#333333">384</text>
    <text x="384" y="160" style="text-anchor:start;font-size:10px;fill:#333333">We</text>
    <rect x="384" y="180" width="3" height="5" style="fill:#66cc66;stroke:none;"/>
    <text x="384" y="50" style="text-anchor:start;font-size:10px;fill:#333333">384</text>
    <text x="384" y="40" style="text-anchor:start;font-size:10px;fill:#333333">Re</text>
    <rect x="384" y="60" width="3" height="5" style="fill:#cc6666;stroke:none;"/>
    <text x="455" y="170" style="text-anchor:start;font-size:10px;fill:#333333">455</text>
    <text x="455" y="160" style="text-anchor:start;font-size:10px;fill:#333333">Rs</text>
    <rect x="455" y="180" width="3" height="5" style="fill:#66cc66;stroke:none;"/>
    <text x="455" y="50" style="text-anchor:start;font-size:10px;fill:#333333">455</text>
    <text x="455" y="40" style="text-anchor:start;font-size:10px;fill:#333333">Rs</text>
    <rect x="455" y="60" width="3" height="5" style="fill:#cc6666;stroke:none;"/>
    <text x="476" y="170" style="text-anchor:start;font-size:10px;fill:#333333">476</text>
    <text x="476" y="160" style="text-anchor:start;font-size:10px;fill:#333333">Re</text>
    <rect x="476" y="180" width="3" height="5" style="fill:#66cc66;stroke:none;"/>
    <text x="476" y="50" style="text-anchor:start;font-size:10px;fill:#333333">476</text>
    <text x="476" y="40" style="text-anchor:start;font-size:10px;fill:#333333">Re</text>
    <rect x="476" y="60" width="3" height="5" style="fill:#cc6666;stroke:none;"/>
</svg>